<svg width="48" height="48" viewBox="0 0 48 48" fill="none" xmlns="http://www.w3.org/2000/svg">
<path d="M11.701 7.00039C12.2534 6.3831 12.2009 5.4348 11.5836 4.88231C10.9663 4.32982 10.018 4.38235 9.46555 4.99964C7.06365 7.68326 5.39235 11.039 4.76945 14.7518C4.63238 15.5688 5.18358 16.3423 6.00059 16.4793C6.8176 16.6164 7.59103 16.0652 7.7281 15.2482C8.25431 12.1116 9.66627 9.27372 11.701 7.00039Z" fill="#FF4438"/>
<path d="M38.5342 4.99964C37.9817 4.38235 37.0335 4.32982 36.4162 4.88231C35.7989 5.4348 35.7463 6.3831 36.2988 7.00039C38.3335 9.27372 39.7455 12.1116 40.2717 15.2482C40.4088 16.0652 41.1822 16.6164 41.9992 16.4793C42.8162 16.3423 43.3674 15.5688 43.2303 14.7518C42.6074 11.039 40.9361 7.68326 38.5342 4.99964Z" fill="#FF4438"/>
<path fill-rule="evenodd" clip-rule="evenodd" d="M24.0003 4.5C16.5446 4.5 10.5005 10.5439 10.5003 17.9996L10.4999 19.5C10.4999 23.7463 8.89783 27.6148 6.26277 30.5398C5.92977 30.9094 5.80171 31.4201 5.9209 31.9031C6.04009 32.3861 6.39102 32.7786 6.85774 32.9509C9.94599 34.091 13.1789 34.9319 16.521 35.4385C16.5073 35.624 16.5003 35.8113 16.5003 36C16.5003 40.1421 19.8581 43.5 24.0003 43.5C28.1424 43.5 31.5003 40.1421 31.5003 36C31.5003 35.8112 31.4933 35.6239 31.4795 35.4384C34.8213 34.9317 38.054 34.0909 41.142 32.9509C41.6087 32.7786 41.9597 32.3861 42.0788 31.9031C42.198 31.4201 42.07 30.9094 41.737 30.5398C39.1019 27.6148 37.4999 23.7463 37.4999 19.5V18.0984L37.5003 18C37.5003 10.5442 31.4561 4.5 24.0003 4.5ZM19.5003 36C19.5003 35.9324 19.5017 35.8653 19.5047 35.7985C20.9856 35.9319 22.485 36 23.9999 36C25.5151 36 27.0147 35.9319 28.4959 35.7985C28.4988 35.8652 28.5003 35.9324 28.5003 36C28.5003 38.4853 26.4855 40.5 24.0003 40.5C21.515 40.5 19.5003 38.4853 19.5003 36Z" fill="#FF4438"/>
</svg>
