<svg width="24" height="24" viewBox="0 0 24 24" fill="none" xmlns="http://www.w3.org/2000/svg">
<path d="M12 7.64844C10.9335 7.64844 10.0157 8.55169 10.0156 9.74023C10.0156 10.9283 10.9354 11.832 12 11.832C13.0666 11.832 13.9844 10.9288 13.9844 9.74023C13.9843 8.55169 13.0665 7.64844 12 7.64844ZM19.4189 9.74023C19.4189 10.6943 19.0844 11.7767 18.6318 12.8301C18.1709 13.903 17.5482 15.0354 16.8877 16.1133C15.566 18.2702 14.0511 20.2825 13.2637 21.2949L13.2627 21.2969C12.6183 22.1218 11.3836 22.1219 10.7393 21.2969V21.2959C9.94988 20.2838 8.43563 18.2705 7.11426 16.1133C6.45402 15.0354 5.83083 13.9039 5.37012 12.8311C4.91768 11.7774 4.58301 10.6942 4.58301 9.74023C4.58305 5.54411 7.87381 2.08301 12 2.08301C16.1288 2.08301 19.416 5.5441 19.4189 9.73926V9.74023Z" stroke="#FF8D86" stroke-width="1.83333"/>
</svg>
