<svg width="20" height="20" viewBox="0 0 20 20" fill="none" xmlns="http://www.w3.org/2000/svg">
<g clip-path="url(#clip0_539_1497)">
<path d="M9.99734 1.51125L12.4079 0L13.8473 2.46779L16.6785 2.25813L16.8129 5.11465L19.4185 6.25464L18.2176 8.84909L19.9995 11.0767L17.7407 12.8107L18.287 15.6191L15.4905 16.0952L14.6798 18.8382L11.9787 17.9515L9.99734 20L8.01599 17.9515L5.31926 18.8382L4.50851 16.0952L1.70773 15.6191L2.25835 12.8107L-0.000488281 11.0767L1.7771 8.84909L0.580479 6.25464L3.18616 5.11465L3.32056 2.25813L6.15169 2.46779L7.58676 0L9.99734 1.51125Z" fill="#4AAF99"/>
<path d="M8.31091 14.4005L4.69504 10.7578C4.35686 10.4171 4.35686 9.86243 4.69504 9.52175C5.03321 9.18106 5.58383 9.18106 5.922 9.52175L8.31524 11.9328L13.8821 6.32455C14.2203 5.98386 14.7709 5.98386 15.1091 6.32455C15.4473 6.66523 15.4473 7.21994 15.1091 7.56062L8.31524 14.4049L8.31091 14.4005Z" fill="#C8EAE3"/>
</g>
<defs>
<clipPath id="clip0_539_1497">
<rect width="20" height="20" fill="white"/>
</clipPath>
</defs>
</svg>
