<svg width="48" height="48" viewBox="0 0 48 48" fill="none" xmlns="http://www.w3.org/2000/svg">
<path fill-rule="evenodd" clip-rule="evenodd" d="M23.0795 44.7021C23.1399 44.7371 23.1874 44.7641 23.221 44.783L23.2769 44.8142C23.7226 45.0589 24.2755 45.057 24.7217 44.815L24.779 44.783C24.8126 44.7641 24.8601 44.7371 24.9205 44.7021C25.0413 44.6321 25.2139 44.53 25.431 44.3964C25.8649 44.1292 26.4775 43.7351 27.2092 43.2182C28.6702 42.1862 30.6195 40.6549 32.5731 38.6547C36.4614 34.6737 40.5 28.6923 40.5 21C40.5 11.8873 33.1127 4.5 24 4.5C14.8873 4.5 7.5 11.8873 7.5 21C7.5 28.6923 11.5386 34.6737 15.4269 38.6547C17.3805 40.6549 19.3298 42.1862 20.7908 43.2182C21.5225 43.7351 22.1351 44.1292 22.569 44.3964C22.7861 44.53 22.9587 44.6321 23.0795 44.7021ZM24 27C27.3137 27 30 24.3137 30 21C30 17.6863 27.3137 15 24 15C20.6863 15 18 17.6863 18 21C18 24.3137 20.6863 27 24 27Z" fill="#FF4438"/>
</svg>
