<svg width="48" height="48" viewBox="0 0 48 48" fill="none" xmlns="http://www.w3.org/2000/svg">
<path fill-rule="evenodd" clip-rule="evenodd" d="M25.0314 4.33961C24.4529 3.79175 23.5471 3.79175 22.9686 4.33961C18.935 8.15954 13.4925 10.5002 7.5 10.5002C7.40466 10.5002 7.30946 10.4996 7.21442 10.4984C6.55969 10.4903 5.97534 10.9078 5.77083 11.5298C4.94575 14.0394 4.5 16.7193 4.5 19.5003C4.5 31.3843 12.6281 41.3662 23.6261 44.1969C23.8714 44.26 24.1286 44.26 24.3739 44.1969C35.3719 41.3662 43.5 31.3843 43.5 19.5003C43.5 16.7193 43.0543 14.0394 42.2292 11.5298C42.0247 10.9078 41.4403 10.4903 40.7856 10.4984C40.6905 10.4996 40.5953 10.5002 40.5 10.5002C34.5075 10.5002 29.065 8.15954 25.0314 4.33961ZM31.2206 20.3719C31.7021 19.6977 31.546 18.7609 30.8719 18.2794C30.1977 17.7979 29.2609 17.954 28.7794 18.6281L22.3086 27.6873L19.0607 24.4393C18.4749 23.8536 17.5251 23.8536 16.9393 24.4393C16.3536 25.0251 16.3536 25.9749 16.9393 26.5607L21.4393 31.0607C21.7511 31.3724 22.1843 31.5313 22.6237 31.4949C23.0631 31.4585 23.4643 31.2307 23.7206 30.8719L31.2206 20.3719Z" fill="#FF4438"/>
</svg>
