<svg width="48" height="48" viewBox="0 0 48 48" fill="none" xmlns="http://www.w3.org/2000/svg">
<path fill-rule="evenodd" clip-rule="evenodd" d="M11.2721 9.15077C11.8579 9.73655 11.8579 10.6863 11.2721 11.2721C4.24264 18.3015 4.24264 29.6985 11.2721 36.7279C11.8579 37.3137 11.8579 38.2635 11.2721 38.8492C10.6863 39.435 9.73654 39.435 9.15076 38.8492C0.949749 30.6482 0.949747 17.3518 9.15076 9.15077C9.73654 8.56498 10.6863 8.56498 11.2721 9.15077ZM36.7279 9.15077C37.3137 8.56498 38.2635 8.56498 38.8492 9.15077C47.0503 17.3518 47.0503 30.6482 38.8492 38.8492C38.2635 39.435 37.3137 39.435 36.7279 38.8492C36.1421 38.2635 36.1421 37.3137 36.7279 36.7279C43.7574 29.6985 43.7574 18.3015 36.7279 11.2721C36.1421 10.6863 36.1421 9.73655 36.7279 9.15077ZM15.5147 13.3934C16.1005 13.9792 16.1005 14.9289 15.5147 15.5147C10.8284 20.201 10.8284 27.799 15.5147 32.4853C16.1005 33.0711 16.1005 34.0208 15.5147 34.6066C14.9289 35.1924 13.9792 35.1924 13.3934 34.6066C7.53553 28.7487 7.53553 19.2513 13.3934 13.3934C13.9792 12.8076 14.9289 12.8076 15.5147 13.3934ZM32.4853 13.3934C33.0711 12.8076 34.0208 12.8076 34.6066 13.3934C40.4645 19.2513 40.4645 28.7487 34.6066 34.6066C34.0208 35.1924 33.0711 35.1924 32.4853 34.6066C31.8995 34.0208 31.8995 33.0711 32.4853 32.4853C37.1716 27.799 37.1716 20.201 32.4853 15.5147C31.8995 14.9289 31.8995 13.9792 32.4853 13.3934ZM19.7574 17.636C20.3431 18.2218 20.3431 19.1716 19.7574 19.7574C17.4142 22.1005 17.4142 25.8995 19.7574 28.2426C20.3431 28.8284 20.3431 29.7782 19.7574 30.364C19.1716 30.9498 18.2218 30.9498 17.636 30.364C14.1213 26.8493 14.1213 21.1508 17.636 17.636C18.2218 17.0503 19.1716 17.0503 19.7574 17.636ZM28.2426 17.636C28.8284 17.0503 29.7782 17.0503 30.364 17.636C33.8787 21.1508 33.8787 26.8493 30.364 30.364C29.7782 30.9498 28.8284 30.9498 28.2426 30.364C27.6569 29.7782 27.6569 28.8284 28.2426 28.2426C30.5858 25.8995 30.5858 22.1005 28.2426 19.7574C27.6569 19.1716 27.6569 18.2218 28.2426 17.636ZM21.75 24C21.75 22.7574 22.7574 21.75 24 21.75C25.2426 21.75 26.25 22.7574 26.25 24C26.25 25.2426 25.2426 26.25 24 26.25C22.7574 26.25 21.75 25.2426 21.75 24Z" fill="#FF4438"/>
</svg>
