<svg width="21" height="20" viewBox="0 0 21 20" fill="none" xmlns="http://www.w3.org/2000/svg">
<g clip-path="url(#clip0_586_1265)">
<path fill-rule="evenodd" clip-rule="evenodd" d="M16.1392 19.6151C15.9955 19.6151 15.8493 19.5766 15.7184 19.5048L10.751 16.7733C10.6612 16.7246 10.556 16.6964 10.4533 16.6964C10.3507 16.6964 10.2455 16.722 10.1557 16.7733L5.1882 19.5048C5.05734 19.5766 4.91365 19.6151 4.7674 19.6151C4.50825 19.6151 4.26193 19.4997 4.09515 19.2971C3.93093 19.097 3.86422 18.838 3.91297 18.5815L4.9778 13.016C5.01885 12.8082 4.94957 12.5953 4.79306 12.4492L0.662043 8.56867C0.413156 8.33528 0.323351 7.98904 0.428551 7.66588C0.533751 7.34272 0.810862 7.11445 1.14699 7.07085L6.77133 6.36298C6.98172 6.33733 7.16133 6.20653 7.25371 6.01417L9.6656 0.88465C9.81185 0.576878 10.1121 0.384521 10.4533 0.384521C10.7946 0.384521 11.0973 0.576878 11.241 0.88465L13.6529 6.01417C13.7427 6.20653 13.9249 6.33733 14.1353 6.36298L19.7596 7.07085C20.0983 7.11445 20.3729 7.34015 20.4781 7.66588C20.5833 7.98904 20.4935 8.33528 20.2446 8.56867L16.111 12.4466C15.9571 12.5928 15.8878 12.8031 15.9263 13.0134L16.9911 18.5789C17.0398 18.8354 16.9731 19.097 16.8089 19.2945C16.6421 19.4971 16.3958 19.6125 16.1367 19.6125L16.1392 19.6151Z" fill="url(#paint0_linear_586_1265)"/>
<path d="M10.4561 0.769428C10.6331 0.769428 10.8076 0.861759 10.8949 1.04899L13.3068 6.17851C13.453 6.48884 13.7481 6.70428 14.0893 6.74532L19.7137 7.45319C20.1216 7.50449 20.2859 8.00718 19.9857 8.2893L15.8521 12.1672C15.6006 12.4032 15.4877 12.7494 15.5544 13.0854L16.6193 18.6509C16.6808 18.969 16.4268 19.228 16.142 19.228C16.065 19.228 15.9855 19.2101 15.9085 19.1665L10.941 16.435C10.7897 16.3529 10.6229 16.3119 10.4587 16.3119C10.2944 16.3119 10.1251 16.3529 9.97628 16.435L5.0088 19.1665C4.93183 19.2075 4.85228 19.228 4.77531 19.228C4.4905 19.228 4.23648 18.9664 4.29806 18.6509L5.36289 13.0854C5.42703 12.7494 5.31414 12.4006 5.06525 12.1672L0.923971 8.2893C0.623767 8.00718 0.787981 7.50449 1.19595 7.45319L6.82029 6.74532C7.16155 6.70172 7.45662 6.48884 7.60287 6.17851L10.0148 1.04899C10.102 0.861759 10.2791 0.769428 10.4535 0.769428M10.4561 0C9.96345 0 9.52982 0.276994 9.31942 0.720698L6.90753 5.85022C6.87417 5.92203 6.80489 5.97076 6.72535 5.98102L1.10101 6.68889C0.613504 6.75045 0.215797 7.07874 0.0644122 7.54552C-0.0869728 8.01231 0.0413196 8.51244 0.400538 8.84842L4.53412 12.7263C4.59313 12.7802 4.61879 12.8597 4.6034 12.9392L3.53857 18.5047C3.46673 18.8741 3.56423 19.2511 3.80285 19.5383C4.04404 19.8307 4.39813 19.9974 4.77274 19.9974C4.98314 19.9974 5.19098 19.9436 5.37828 19.841L10.3458 17.1095C10.3791 17.0916 10.4176 17.0813 10.4587 17.0813C10.4997 17.0813 10.5356 17.0916 10.5716 17.1095L15.539 19.841C15.7263 19.9436 15.9342 19.9974 16.1446 19.9974C16.5192 19.9974 16.8733 19.8307 17.1145 19.5383C17.3531 19.2511 17.448 18.8741 17.3788 18.5047L16.3139 12.9392C16.2985 12.8597 16.3242 12.7802 16.3832 12.7263L20.5168 8.84842C20.876 8.51244 21.0043 8.01231 20.8529 7.54552C20.7015 7.07874 20.3038 6.75045 19.8163 6.68889L14.192 5.98102C14.1124 5.97076 14.0457 5.92203 14.0098 5.85022L11.5928 0.720698C11.3824 0.276994 10.9487 0 10.4561 0Z" fill="#986B50"/>
</g>
<defs>
<linearGradient id="paint0_linear_586_1265" x1="0.384932" y1="9.99981" x2="20.5243" y2="9.99981" gradientUnits="userSpaceOnUse">
<stop offset="0.03" stop-color="#FFD200"/>
<stop offset="1" stop-color="#F99F1C"/>
</linearGradient>
<clipPath id="clip0_586_1265">
<rect width="20.9091" height="20" fill="white"/>
</clipPath>
</defs>
</svg>
