<svg width="48" height="48" viewBox="0 0 48 48" fill="none" xmlns="http://www.w3.org/2000/svg">
<path fill-rule="evenodd" clip-rule="evenodd" d="M6 12C6 8.68629 8.68629 6 12 6H16.5C19.8137 6 22.5 8.68629 22.5 12V16.5C22.5 19.8137 19.8137 22.5 16.5 22.5H12C8.68629 22.5 6 19.8137 6 16.5V12ZM25.5 12C25.5 8.68629 28.1863 6 31.5 6H36C39.3137 6 42 8.68629 42 12V16.5C42 19.8137 39.3137 22.5 36 22.5H31.5C28.1863 22.5 25.5 19.8137 25.5 16.5V12ZM6 31.5C6 28.1863 8.68629 25.5 12 25.5H16.5C19.8137 25.5 22.5 28.1863 22.5 31.5V36C22.5 39.3137 19.8137 42 16.5 42H12C8.68629 42 6 39.3137 6 36V31.5ZM25.5 31.5C25.5 28.1863 28.1863 25.5 31.5 25.5H36C39.3137 25.5 42 28.1863 42 31.5V36C42 39.3137 39.3137 42 36 42H31.5C28.1863 42 25.5 39.3137 25.5 36V31.5Z" fill="#FF4438"/>
</svg>
