<svg width="46" height="66" viewBox="0 0 46 66" fill="none" xmlns="http://www.w3.org/2000/svg">
<g clip-path="url(#clip0_608_2637)">
<path d="M22.9975 0C10.2967 0 0 10.2967 0 22.9975C0 32.2454 12.198 52.81 18.8262 63.303C20.7658 66.3728 25.234 66.3728 27.1736 63.303C33.8018 52.81 45.9998 32.2501 45.9998 22.9975C45.9998 10.2967 35.7031 0 22.9975 0ZM22.9975 36.5125C15.536 36.5125 9.48252 30.4638 9.48252 22.9975C9.48252 15.5312 15.5312 9.48252 22.9975 9.48252C30.4638 9.48252 36.5125 15.5312 36.5125 22.9975C36.5125 30.4638 30.4638 36.5125 22.9975 36.5125Z" fill="#FF4438"/>
</g>
<defs>
<clipPath id="clip0_608_2637">
<rect width="45.9998" height="65.6066" fill="white"/>
</clipPath>
</defs>
</svg>
