<svg width="48" height="48" viewBox="0 0 48 48" fill="none" xmlns="http://www.w3.org/2000/svg">
<path fill-rule="evenodd" clip-rule="evenodd" d="M16.3229 5.16152C17.3787 4.63366 18.6213 4.63366 19.6771 5.16152L29.6646 10.1553C29.8757 10.2609 30.1243 10.2609 30.3354 10.1553L38.073 6.28652C40.5663 5.03983 43.5 6.85294 43.5 9.64062V34.6095C43.5 36.0299 42.6975 37.3284 41.4271 37.9636L31.6771 42.8386C30.6213 43.3664 29.3787 43.3664 28.3229 42.8386L18.3354 37.8448C18.1243 37.7392 17.8757 37.7392 17.6646 37.8448L9.92705 41.7136C7.43367 42.9603 4.5 41.1472 4.5 38.3595V13.3906C4.5 11.9702 5.30251 10.6717 6.57295 10.0365L16.3229 5.16152ZM18 12C18.8284 12 19.5 12.6716 19.5 13.5V30C19.5 30.8285 18.8284 31.5 18 31.5C17.1716 31.5 16.5 30.8285 16.5 30V13.5C16.5 12.6716 17.1716 12 18 12ZM31.5 18C31.5 17.1716 30.8284 16.5 30 16.5C29.1716 16.5 28.5 17.1716 28.5 18V34.5C28.5 35.3285 29.1716 36 30 36C30.8284 36 31.5 35.3285 31.5 34.5V18Z" fill="#FF4438"/>
</svg>
