<svg width="48" height="48" viewBox="0 0 48 48" fill="none" xmlns="http://www.w3.org/2000/svg">
<path fill-rule="evenodd" clip-rule="evenodd" d="M4.5 10.5C4.5 7.18629 7.18629 4.5 10.5 4.5H37.5C40.8137 4.5 43.5 7.18629 43.5 10.5V30C43.5 33.3137 40.8137 36 37.5 36H31.5V36.5147C31.5 37.7082 31.9741 38.8528 32.818 39.6967L34.0607 40.9393C34.4897 41.3683 34.618 42.0135 34.3858 42.574C34.1536 43.1345 33.6067 43.5 33 43.5H15C14.3933 43.5 13.8464 43.1345 13.6142 42.574C13.382 42.0135 13.5103 41.3683 13.9393 40.9393L15.182 39.6967C16.0259 38.8528 16.5 37.7082 16.5 36.5147V36H10.5C7.18629 36 4.5 33.3137 4.5 30V10.5ZM7.5 10.5V25.5C7.5 27.1569 8.84315 28.5 10.5 28.5H37.5C39.1569 28.5 40.5 27.1569 40.5 25.5V10.5C40.5 8.84315 39.1569 7.5 37.5 7.5H10.5C8.84315 7.5 7.5 8.84315 7.5 10.5Z" fill="#FF4438"/>
</svg>
