<svg width="48" height="48" viewBox="0 0 48 48" fill="none" xmlns="http://www.w3.org/2000/svg">
<path d="M7.06066 4.93934C6.47487 4.35355 5.52513 4.35355 4.93934 4.93934C4.35355 5.52513 4.35355 6.47487 4.93934 7.06066L40.9393 43.0607C41.5251 43.6464 42.4749 43.6464 43.0607 43.0607C43.6464 42.4749 43.6464 41.5251 43.0607 40.9393L7.06066 4.93934Z" fill="#FF4438"/>
<path d="M45.3517 25.1066C44.2637 28.3774 42.4452 31.315 40.0894 33.7255L33.8924 27.5285C34.2858 26.4257 34.5 25.2379 34.5 24C34.5 18.201 29.799 13.5 24 13.5C22.7621 13.5 21.5743 13.7142 20.4715 14.1076L15.518 9.15399C18.1357 8.08762 20.9995 7.5 24.001 7.5C33.9416 7.5 42.3729 13.9454 45.3511 22.8809C45.5918 23.603 45.592 24.3843 45.3517 25.1066Z" fill="#FF4438"/>
<path d="M31.5 24C31.5 24.3603 31.4746 24.7147 31.4255 25.0615L22.9385 16.5745C23.2853 16.5254 23.6397 16.5 24 16.5C28.1421 16.5 31.5 19.8579 31.5 24Z" fill="#FF4438"/>
<path d="M25.0615 31.4255L16.5745 22.9385C16.5254 23.2853 16.5 23.6397 16.5 24C16.5 28.1421 19.8579 31.5 24 31.5C24.3603 31.5 24.7147 31.4746 25.0615 31.4255Z" fill="#FF4438"/>
<path d="M13.5 24C13.5 22.7621 13.7142 21.5743 14.1076 20.4715L7.90985 14.2738C5.55373 16.6844 3.73494 19.6223 2.64682 22.8934C2.40657 23.6157 2.40679 24.397 2.64748 25.1191C5.62567 34.0546 14.0569 40.5 23.9975 40.5C26.9994 40.5 29.8636 39.9122 32.4816 38.8456L27.5285 33.8924C26.4257 34.2858 25.2379 34.5 24 34.5C18.201 34.5 13.5 29.799 13.5 24Z" fill="#FF4438"/>
</svg>
