<svg width="48" height="48" viewBox="0 0 48 48" fill="none" xmlns="http://www.w3.org/2000/svg">
<path fill-rule="evenodd" clip-rule="evenodd" d="M37.5 13.5C40.8137 13.5 43.5 16.1863 43.5 19.5V19.5752C45.2117 19.9227 46.5 21.4358 46.5 23.25V27.75C46.5 29.5642 45.2117 31.0773 43.5 31.4248V31.5C43.5 34.8137 40.8137 37.5 37.5 37.5H7.5C4.18629 37.5 1.5 34.8137 1.5 31.5V19.5C1.5 16.1863 4.18629 13.5 7.5 13.5H37.5ZM7.5 16.5C5.84315 16.5 4.5 17.8431 4.5 19.5V31.5C4.5 33.1569 5.84315 34.5 7.5 34.5H37.5C39.1569 34.5 40.5 33.1569 40.5 31.5V19.5C40.5 17.8431 39.1569 16.5 37.5 16.5H7.5ZM36 19.5C36.8284 19.5 37.5 20.1716 37.5 21V30C37.5 30.8284 36.8284 31.5 36 31.5H9C8.17157 31.5 7.5 30.8284 7.5 30V21C7.5 20.1716 8.17157 19.5 9 19.5H36Z" fill="#FF4438"/>
</svg>
