<svg width="48" height="48" viewBox="0 0 48 48" fill="none" xmlns="http://www.w3.org/2000/svg">
<path d="M11.7007 7.00039C12.2532 6.3831 12.2007 5.4348 11.5834 4.88231C10.9661 4.32982 10.0178 4.38235 9.46531 4.99964C7.0634 7.68326 5.3921 11.039 4.7692 14.7518C4.63213 15.5688 5.18333 16.3423 6.00034 16.4793C6.81735 16.6164 7.59078 16.0652 7.72785 15.2482C8.25407 12.1116 9.66603 9.27372 11.7007 7.00039Z" fill="#FF4438"/>
<path d="M38.534 4.99964C37.9815 4.38235 37.0332 4.32982 36.4159 4.88231C35.7986 5.4348 35.7461 6.3831 36.2986 7.00039C38.3333 9.27372 39.7452 12.1116 40.2715 15.2482C40.4085 16.0652 41.1819 16.6164 41.999 16.4793C42.816 16.3423 43.3672 15.5688 43.2301 14.7518C42.6072 11.039 40.9359 7.68326 38.534 4.99964Z" fill="#FF4438"/>
<path fill-rule="evenodd" clip-rule="evenodd" d="M24 4.5C16.5443 4.5 10.5002 10.5439 10.5 17.9996L10.4996 19.5C10.4996 23.7463 8.89759 27.6148 6.26253 30.5398C5.92953 30.9094 5.80147 31.4201 5.92066 31.9031C6.03985 32.3861 6.39078 32.7786 6.8575 32.9509C9.94575 34.091 13.1787 34.9319 16.5208 35.4385C16.507 35.624 16.5 35.8113 16.5 36C16.5 40.1421 19.8579 43.5 24 43.5C28.1422 43.5 31.5 40.1421 31.5 36C31.5 35.8112 31.493 35.6239 31.4792 35.4384C34.8211 34.9317 38.0537 34.0909 41.1418 32.9509C41.6085 32.7786 41.9594 32.3861 42.0786 31.9031C42.1978 31.4201 42.0697 30.9094 41.7367 30.5398C39.1017 27.6148 37.4996 23.7463 37.4996 19.5V18.0984L37.5 18C37.5 10.5442 31.4559 4.5 24 4.5ZM19.5 36C19.5 35.9324 19.5015 35.8653 19.5044 35.7985C20.9853 35.9319 22.4847 36 23.9996 36C25.5148 36 27.0145 35.9319 28.4956 35.7985C28.4985 35.8652 28.5 35.9324 28.5 36C28.5 38.4853 26.4853 40.5 24 40.5C21.5147 40.5 19.5 38.4853 19.5 36Z" fill="#FF4438"/>
</svg>
