<svg width="48" height="48" viewBox="0 0 48 48" fill="none" xmlns="http://www.w3.org/2000/svg">
<path fill-rule="evenodd" clip-rule="evenodd" d="M24 13.5C24 7.70101 28.701 3 34.5 3C35.5583 3 36.5826 3.15704 37.5495 3.45009C38.054 3.60301 38.4412 4.00958 38.5694 4.52097C38.6976 5.03235 38.5478 5.57348 38.1751 5.94627L31.5377 12.5837C31.6611 13.5348 32.0877 14.4516 32.818 15.182C33.5484 15.9123 34.4652 16.3389 35.4163 16.4623L42.0537 9.82495C42.4265 9.45216 42.9676 9.30244 43.479 9.4306C43.9904 9.55876 44.397 9.94598 44.5499 10.4505C44.843 11.4174 45 12.4417 45 13.5C45 19.299 40.299 24 34.5 24C34.199 24 33.9006 23.9873 33.6054 23.9623C31.5709 23.7904 29.8675 24.1633 28.9889 25.2303L14.6865 42.5974C13.4337 44.1187 11.5662 45 9.59537 45C5.95285 45 3 42.0472 3 38.4046C3 36.4338 3.88133 34.5663 5.40265 33.3135L22.7697 19.0111C23.8367 18.1325 24.2096 16.4291 24.0377 14.3946C24.0127 14.0994 24 13.801 24 13.5ZM8.23447 38.2501C8.23447 37.4217 8.90604 36.7501 9.73447 36.7501H9.74947C10.5779 36.7501 11.2495 37.4217 11.2495 38.2501V38.2651C11.2495 39.0935 10.5779 39.7651 9.74947 39.7651H9.73447C8.90604 39.7651 8.23447 39.0935 8.23447 38.2651V38.2501Z" fill="#FF4438"/>
<path d="M20.1519 17.2806L15.75 12.8787V9.75003C15.75 9.22314 15.4736 8.73488 15.0218 8.46379L7.52178 3.96379C6.93156 3.60967 6.17608 3.70267 5.68937 4.18937L4.18937 5.68937C3.70267 6.17608 3.60967 6.93156 3.96379 7.52178L8.46379 15.0218C8.73488 15.4736 9.22314 15.75 9.75003 15.75H12.8787L17.0028 19.8741L20.1519 17.2806Z" fill="#FF4438"/>
<path fill-rule="evenodd" clip-rule="evenodd" d="M25.1118 34.6574L33.4773 43.0228C36.1133 45.6589 40.3872 45.6589 43.0232 43.0228C45.6592 40.3868 45.6592 36.1129 43.0232 33.4769L36.4119 26.8656C35.7874 26.9541 35.1491 26.9999 34.5002 26.9999C34.1148 26.9999 33.7321 26.9836 33.3529 26.9516C32.5643 26.8849 31.9879 26.9392 31.6178 27.0353C31.4106 27.0891 31.3149 27.1425 31.2838 27.1629L25.1118 34.6574ZM31.9395 31.9393C32.5253 31.3536 33.4751 31.3536 34.0608 31.9393L37.8108 35.6893C38.3966 36.2751 38.3966 37.2249 37.8108 37.8107C37.2251 38.3964 36.2753 38.3964 35.6895 37.8107L31.9395 34.0607C31.3537 33.4749 31.3537 32.5251 31.9395 31.9393Z" fill="#FF4438"/>
</svg>
